<svg width="10" height="14" viewBox="0 0 10 14" fill="none" xmlns="http://www.w3.org/2000/svg">
<path d="M4.99998 0.333313C2.41998 0.333313 0.333313 2.41998 0.333313 4.99998C0.333313 8.49998 4.99998 13.6666 4.99998 13.6666C4.99998 13.6666 9.66665 8.49998 9.66665 4.99998C9.66665 2.41998 7.57998 0.333313 4.99998 0.333313ZM1.66665 4.99998C1.66665 3.15998 3.15998 1.66665 4.99998 1.66665C6.83998 1.66665 8.33331 3.15998 8.33331 4.99998C8.33331 6.91998 6.41331 9.79331 4.99998 11.5866C3.61331 9.80665 1.66665 6.89998 1.66665 4.99998Z" fill="#071015"/>
<path d="M4.99998 6.66665C5.92045 6.66665 6.66665 5.92045 6.66665 4.99998C6.66665 4.0795 5.92045 3.33331 4.99998 3.33331C4.07951 3.33331 3.33331 4.0795 3.33331 4.99998C3.33331 5.92045 4.07951 6.66665 4.99998 6.66665Z" fill="#071015"/>
</svg>
