<svg width="12" height="14" viewBox="0 0 12 14" fill="none" xmlns="http://www.w3.org/2000/svg">
<path d="M6.00002 13.6667C6.73335 13.6667 7.33335 13.0667 7.33335 12.3334H4.66669C4.66669 13.0667 5.26669 13.6667 6.00002 13.6667ZM10 9.66669V6.33335C10 4.28669 8.91335 2.57335 7.00002 2.12002V1.66669C7.00002 1.11335 6.55335 0.666687 6.00002 0.666687C5.44669 0.666687 5.00002 1.11335 5.00002 1.66669V2.12002C3.09335 2.57335 2.00002 4.28002 2.00002 6.33335V9.66669L0.666687 11V11.6667H11.3334V11L10 9.66669ZM8.66669 10.3334H3.33335V6.33335C3.33335 4.68002 4.34002 3.33335 6.00002 3.33335C7.66002 3.33335 8.66669 4.68002 8.66669 6.33335V10.3334Z" fill="#071015"/>
</svg>
