<svg width="14" height="14" viewBox="0 0 14 14" fill="none" xmlns="http://www.w3.org/2000/svg">
<path d="M11.9533 7.65331C11.98 7.43998 12 7.22665 12 6.99998C12 6.77331 11.98 6.55998 11.9533 6.34665L13.36 5.24665C13.4867 5.14665 13.52 4.96665 13.44 4.81998L12.1067 2.51331C12.0467 2.40665 11.9333 2.34665 11.8133 2.34665C11.7733 2.34665 11.7333 2.35331 11.7 2.36665L10.04 3.03331C9.69335 2.76665 9.32002 2.54665 8.91335 2.37998L8.66002 0.613313C8.64002 0.453313 8.50002 0.333313 8.33335 0.333313H5.66668C5.50002 0.333313 5.36002 0.453313 5.34002 0.613313L5.08668 2.37998C4.68002 2.54665 4.30668 2.77331 3.96002 3.03331L2.30001 2.36665C2.26002 2.35331 2.22002 2.34665 2.18002 2.34665C2.06668 2.34665 1.95335 2.40665 1.89335 2.51331L0.560015 4.81998C0.473348 4.96665 0.513348 5.14665 0.640015 5.24665L2.04668 6.34665C2.02002 6.55998 2.00002 6.77998 2.00002 6.99998C2.00002 7.21998 2.02002 7.43998 2.04668 7.65331L0.640015 8.75331C0.513348 8.85331 0.480015 9.03331 0.560015 9.17998L1.89335 11.4866C1.95335 11.5933 2.06668 11.6533 2.18668 11.6533C2.22668 11.6533 2.26668 11.6466 2.30001 11.6333L3.96002 10.9666C4.30668 11.2333 4.68002 11.4533 5.08668 11.62L5.34002 13.3866C5.36002 13.5466 5.50002 13.6666 5.66668 13.6666H8.33335C8.50002 13.6666 8.64002 13.5466 8.66002 13.3866L8.91335 11.62C9.32002 11.4533 9.69335 11.2266 10.04 10.9666L11.7 11.6333C11.74 11.6466 11.78 11.6533 11.82 11.6533C11.9333 11.6533 12.0467 11.5933 12.1067 11.4866L13.44 9.17998C13.52 9.03331 13.4867 8.85331 13.36 8.75331L11.9533 7.65331ZM10.6333 6.51331C10.66 6.71998 10.6667 6.85998 10.6667 6.99998C10.6667 7.13998 10.6533 7.28665 10.6333 7.48665L10.54 8.23998L11.1333 8.70665L11.8533 9.26665L11.3867 10.0733L10.54 9.73331L9.84668 9.45331L9.24668 9.90665C8.96002 10.12 8.68668 10.28 8.41335 10.3933L7.70668 10.68L7.60002 11.4333L7.46668 12.3333H6.53335L6.40668 11.4333L6.30002 10.68L5.59335 10.3933C5.30668 10.2733 5.04001 10.12 4.77335 9.91998L4.16668 9.45331L3.46002 9.73998L2.61335 10.08L2.14668 9.27331L2.86668 8.71331L3.46002 8.24665L3.36668 7.49331C3.34668 7.28665 3.33335 7.13331 3.33335 6.99998C3.33335 6.86665 3.34668 6.71331 3.36668 6.51331L3.46002 5.75998L2.86668 5.29331L2.14668 4.73331L2.61335 3.92665L3.46002 4.26665L4.15335 4.54665L4.75335 4.09331C5.04002 3.87998 5.31335 3.71998 5.58668 3.60665L6.29335 3.31998L6.40002 2.56665L6.53335 1.66665H7.46002L7.58668 2.56665L7.69335 3.31998L8.40002 3.60665C8.68668 3.72665 8.95335 3.87998 9.22002 4.07998L9.82668 4.54665L10.5333 4.25998L11.38 3.91998L11.8467 4.72665L11.1333 5.29331L10.54 5.75998L10.6333 6.51331ZM7.00002 4.33331C5.52668 4.33331 4.33335 5.52665 4.33335 6.99998C4.33335 8.47331 5.52668 9.66665 7.00002 9.66665C8.47335 9.66665 9.66668 8.47331 9.66668 6.99998C9.66668 5.52665 8.47335 4.33331 7.00002 4.33331ZM7.00002 8.33331C6.26668 8.33331 5.66668 7.73331 5.66668 6.99998C5.66668 6.26665 6.26668 5.66665 7.00002 5.66665C7.73335 5.66665 8.33335 6.26665 8.33335 6.99998C8.33335 7.73331 7.73335 8.33331 7.00002 8.33331Z" fill="#071015"/>
</svg>
