<svg width="14" height="14" viewBox="0 0 14 14" fill="none" xmlns="http://www.w3.org/2000/svg">
<path d="M9.82665 4.16666C9.04665 3.38666 8.02665 2.99333 6.99998 2.99333V6.99333L4.17331 9.81999C5.73331 11.38 8.26665 11.38 9.83331 9.81999C11.3933 8.25999 11.3933 5.72666 9.82665 4.16666ZM6.99998 0.32666C3.31998 0.32666 0.333313 3.31333 0.333313 6.99333C0.333313 10.6733 3.31998 13.66 6.99998 13.66C10.68 13.66 13.6666 10.6733 13.6666 6.99333C13.6666 3.31333 10.68 0.32666 6.99998 0.32666ZM6.99998 12.3267C4.05331 12.3267 1.66665 9.93999 1.66665 6.99333C1.66665 4.04666 4.05331 1.65999 6.99998 1.65999C9.94665 1.65999 12.3333 4.04666 12.3333 6.99333C12.3333 9.93999 9.94665 12.3267 6.99998 12.3267Z" fill="#071015"/>
</svg>
